<svg width="128" height="128" viewBox="0 0 128 128" xmlns="http://www.w3.org/2000/svg" fill="none" stroke="black" stroke-width="2" stroke-linejoin="round" stroke-linecap="round">
  <!-- Mountains -->
  <path d="M10 110 L40 50 L60 90 L80 40 L110 110 Z" />
  <path d="M30 110 L55 65 L75 100 L95 70 L120 110 Z" />
  
  <!-- Snow caps -->
  <path d="M40 50 L47 60 L53 55 L60 90" fill="none" stroke-width="1.5" />
  <path d="M80 40 L85 55 L90 48 L95 70" fill="none" stroke-width="1.5" />
  
  <!-- Sun -->
  <circle cx="20" cy="20" r="10" />
  <g stroke-width="0.7" opacity="0.3">
    <line x1="20" y1="5" x2="20" y2="0" />
    <line x1="20" y1="35" x2="20" y2="40" />
    <line x1="5" y1="20" x2="0" y2="20" />
    <line x1="35" y1="20" x2="40" y2="20" />
    <line x1="10" y1="10" x2="5" y2="5" />
    <line x1="30" y1="10" x2="35" y2="5" />
    <line x1="10" y1="30" x2="5" y2="35" />
    <line x1="30" y1="30" x2="35" y2="35" />
  </g>
  
  <!-- Ground line -->
  <line x1="0" y1="110" x2="128" y2="110" stroke-width="2" />
  
  <!-- Pencil shading hatching on mountains -->
  <g stroke-width="0.5" opacity="0.3" stroke-linecap="round">
    <line x1="38" y1="52" x2="42" y2="85" />
    <line x1="45" y1="55" x2="50" y2="90" />
    <line x1="70" y1="45" x2="75" y2="85" />
    <line x1="85" y1="45" x2="90" y2="80" />
  </g>
</svg>
